<?xml version='1.0' encoding='utf-8'?>
<svg height="225.30mm" viewBox="0.0 0.0 137.60 225.30" width="137.60mm" xmlns="http://www.w3.org/2000/svg" xmlns:cc="http://creativecommons.org/ns#" xmlns:dc="http://purl.org/dc/elements/1.1/" xmlns:inkscape="http://www.inkscape.org/namespaces/inkscape" xmlns:rdf="http://www.w3.org/1999/02/22-rdf-syntax-ns#" xmlns:svg="http://www.w3.org/2000/svg" xmlns:xlink="http://www.w3.org/1999/xlink">
<!--
ABox - A simple Box


This box is kept simple on purpose. If you need more features have a look at the UniversalBox.


Created with Boxes.py (https://festi.info/boxes.py)
Creation date: 2023-12-21 18:07:33
Command line (remove spaces between dashes): boxes ABox - -x=50 - -y=50 - -h=70 - -output=closedbox.svg
-->
<title>ABox</title>
<metadata>
<rdf:RDF><cc:Work>
<dc:title>Box - ABox</dc:title>
<dc:date>2023-12-21 18:07:33</dc:date>
<dc:source>boxes ABox --x=50 --y=50 --h=70 --output=closedbox.svg</dc:source>
<dc:description>A simple Box

This box is kept simple on purpose. If you need more features have a look at the UniversalBox.

Created with Boxes.py (https://festi.info/boxes.py)
Command line: boxes ABox --x=50 --y=50 --h=70 --output=closedbox.svg
Command line short: boxes ABox --x=50 --y=50 --h=70 --output=closedbox.svg
</dc:description>
</cc:Work></rdf:RDF></metadata>
<g id="p-0" style="fill:none;stroke-linecap:round;stroke-linejoin:round;">
  <path d="M 18.800 215.300 H 118.800 V 205.300 H 18.800 V 215.300 Z" stroke="rgb(0,0,0)" stroke-width="0.20" />
  <text dominant-baseline="hanging" font-size="8px" style="font-family: sans-serif ; font-weight: normal; font-style: normal; fill: rgb(255,0,0)" text-anchor="middle" transform="matrix( 1.000 0.000 0.000 1.000 68.800 206.300 )">100.00mm, burn:0.10mm</text>
</g>
<g id="p-1" style="fill:none;stroke-linecap:round;stroke-linejoin:round;">
  <path d="M 31.800 200.400 H 28.900 C 28.800 200.400 28.900 200.500 28.900 200.400 V 197.600 C 28.900 197.500 28.800 197.600 28.900 197.600 H 34.700 C 34.800 197.600 34.700 197.500 34.700 197.600 V 200.400 C 34.700 200.500 34.800 200.400 34.700 200.400 H 31.800 Z" stroke="rgb(0,0,255)" stroke-width="0.20" />
  <path d="M 43.800 200.400 H 40.900 C 40.800 200.400 40.900 200.500 40.900 200.400 V 197.600 C 40.900 197.500 40.800 197.600 40.900 197.600 H 46.700 C 46.800 197.600 46.700 197.500 46.700 197.600 V 200.400 C 46.700 200.500 46.800 200.400 46.700 200.400 H 43.800 Z" stroke="rgb(0,0,255)" stroke-width="0.20" />
  <path d="M 55.800 200.400 H 52.900 C 52.800 200.400 52.900 200.500 52.900 200.400 V 197.600 C 52.900 197.500 52.800 197.600 52.900 197.600 H 58.700 C 58.800 197.600 58.700 197.500 58.700 197.600 V 200.400 C 58.700 200.500 58.800 200.400 58.700 200.400 H 55.800 Z" stroke="rgb(0,0,255)" stroke-width="0.20" />
  <path d="M 21.800 203.600 H 65.800 H 68.800 C 68.855 203.600 68.900 203.555 68.900 203.500 V 195.500 C 68.900 195.445 68.855 195.400 68.800 195.400 H 65.900 C 65.800 195.400 65.900 195.500 65.900 195.400 V 189.600 C 65.900 189.500 65.800 189.600 65.900 189.600 H 68.800 C 68.855 189.600 68.900 189.555 68.900 189.500 V 183.500 C 68.900 183.445 68.855 183.400 68.800 183.400 H 65.900 C 65.800 183.400 65.900 183.500 65.900 183.400 V 177.600 C 65.900 177.500 65.800 177.600 65.900 177.600 H 68.800 C 68.855 177.600 68.900 177.555 68.900 177.500 V 171.500 C 68.900 171.445 68.855 171.400 68.800 171.400 H 65.900 C 65.800 171.400 65.900 171.500 65.900 171.400 V 165.600 C 65.900 165.500 65.800 165.600 65.900 165.600 H 68.800 C 68.855 165.600 68.900 165.555 68.900 165.500 V 159.500 C 68.900 159.445 68.855 159.400 68.800 159.400 H 65.900 C 65.800 159.400 65.900 159.500 65.900 159.400 V 153.600 C 65.900 153.500 65.800 153.600 65.900 153.600 H 68.800 C 68.855 153.600 68.900 153.555 68.900 153.500 V 147.500 C 68.900 147.445 68.855 147.400 68.800 147.400 H 65.900 C 65.800 147.400 65.900 147.500 65.900 147.400 V 141.600 C 65.900 141.500 65.800 141.600 65.900 141.600 H 68.800 C 68.855 141.600 68.900 141.555 68.900 141.500 V 133.500 C 68.900 133.445 68.855 133.400 68.800 133.400 H 65.800 H 21.800 H 18.800 C 18.745 133.400 18.700 133.445 18.700 133.500 V 141.500 C 18.700 141.555 18.745 141.600 18.800 141.600 H 21.700 C 21.800 141.600 21.700 141.500 21.700 141.600 V 147.400 C 21.700 147.500 21.800 147.400 21.700 147.400 H 18.800 C 18.745 147.400 18.700 147.445 18.700 147.500 V 153.500 C 18.700 153.555 18.745 153.600 18.800 153.600 H 21.700 C 21.800 153.600 21.700 153.500 21.700 153.600 V 159.400 C 21.700 159.500 21.800 159.400 21.700 159.400 H 18.800 C 18.745 159.400 18.700 159.445 18.700 159.500 V 165.500 C 18.700 165.555 18.745 165.600 18.800 165.600 H 21.700 C 21.800 165.600 21.700 165.500 21.700 165.600 V 171.400 C 21.700 171.500 21.800 171.400 21.700 171.400 H 18.800 C 18.745 171.400 18.700 171.445 18.700 171.500 V 177.500 C 18.700 177.555 18.745 177.600 18.800 177.600 H 21.700 C 21.800 177.600 21.700 177.500 21.700 177.600 V 183.400 C 21.700 183.500 21.800 183.400 21.700 183.400 H 18.800 C 18.745 183.400 18.700 183.445 18.700 183.500 V 189.500 C 18.700 189.555 18.745 189.600 18.800 189.600 H 21.700 C 21.800 189.600 21.700 189.500 21.700 189.600 V 195.400 C 21.700 195.500 21.800 195.400 21.700 195.400 H 18.800 C 18.745 195.400 18.700 195.445 18.700 195.500 V 203.500 C 18.700 203.555 18.745 203.600 18.800 203.600 H 21.800 Z" stroke="rgb(0,0,0)" stroke-width="0.20" />
</g>
<g id="p-2" style="fill:none;stroke-linecap:round;stroke-linejoin:round;">
  <path d="M 31.800 128.700 H 28.900 C 28.800 128.700 28.900 128.800 28.900 128.700 V 125.900 C 28.900 125.800 28.800 125.900 28.900 125.900 H 34.700 C 34.800 125.900 34.700 125.800 34.700 125.900 V 128.700 C 34.700 128.800 34.800 128.700 34.700 128.700 H 31.800 Z" stroke="rgb(0,0,255)" stroke-width="0.20" />
  <path d="M 43.800 128.700 H 40.900 C 40.800 128.700 40.900 128.800 40.900 128.700 V 125.900 C 40.900 125.800 40.800 125.900 40.900 125.900 H 46.700 C 46.800 125.900 46.700 125.800 46.700 125.900 V 128.700 C 46.700 128.800 46.800 128.700 46.700 128.700 H 43.800 Z" stroke="rgb(0,0,255)" stroke-width="0.20" />
  <path d="M 55.800 128.700 H 52.900 C 52.800 128.700 52.900 128.800 52.900 128.700 V 125.900 C 52.900 125.800 52.800 125.900 52.900 125.900 H 58.700 C 58.800 125.900 58.700 125.800 58.700 125.900 V 128.700 C 58.700 128.800 58.800 128.700 58.700 128.700 H 55.800 Z" stroke="rgb(0,0,255)" stroke-width="0.20" />
  <path d="M 21.800 131.900 H 65.800 H 68.800 C 68.855 131.900 68.900 131.855 68.900 131.800 V 123.800 C 68.900 123.745 68.855 123.700 68.800 123.700 H 65.900 C 65.800 123.700 65.900 123.800 65.900 123.700 V 117.900 C 65.900 117.800 65.800 117.900 65.900 117.900 H 68.800 C 68.855 117.900 68.900 117.855 68.900 117.800 V 111.800 C 68.900 111.745 68.855 111.700 68.800 111.700 H 65.900 C 65.800 111.700 65.900 111.800 65.900 111.700 V 105.900 C 65.900 105.800 65.800 105.900 65.900 105.900 H 68.800 C 68.855 105.900 68.900 105.855 68.900 105.800 V 99.800 C 68.900 99.745 68.855 99.700 68.800 99.700 H 65.900 C 65.800 99.700 65.900 99.800 65.900 99.700 V 93.900 C 65.900 93.800 65.800 93.900 65.900 93.900 H 68.800 C 68.855 93.900 68.900 93.855 68.900 93.800 V 87.800 C 68.900 87.745 68.855 87.700 68.800 87.700 H 65.900 C 65.800 87.700 65.900 87.800 65.900 87.700 V 81.900 C 65.900 81.800 65.800 81.900 65.900 81.900 H 68.800 C 68.855 81.900 68.900 81.855 68.900 81.800 V 75.800 C 68.900 75.745 68.855 75.700 68.800 75.700 H 65.900 C 65.800 75.700 65.900 75.800 65.900 75.700 V 69.900 C 65.900 69.800 65.800 69.900 65.900 69.900 H 68.800 C 68.855 69.900 68.900 69.855 68.900 69.800 V 61.800 C 68.900 61.745 68.855 61.700 68.800 61.700 H 65.800 H 21.800 H 18.800 C 18.745 61.700 18.700 61.745 18.700 61.800 V 69.800 C 18.700 69.855 18.745 69.900 18.800 69.900 H 21.700 C 21.800 69.900 21.700 69.800 21.700 69.900 V 75.700 C 21.700 75.800 21.800 75.700 21.700 75.700 H 18.800 C 18.745 75.700 18.700 75.745 18.700 75.800 V 81.800 C 18.700 81.855 18.745 81.900 18.800 81.900 H 21.700 C 21.800 81.900 21.700 81.800 21.700 81.900 V 87.700 C 21.700 87.800 21.800 87.700 21.700 87.700 H 18.800 C 18.745 87.700 18.700 87.745 18.700 87.800 V 93.800 C 18.700 93.855 18.745 93.900 18.800 93.900 H 21.700 C 21.800 93.900 21.700 93.800 21.700 93.900 V 99.700 C 21.700 99.800 21.800 99.700 21.700 99.700 H 18.800 C 18.745 99.700 18.700 99.745 18.700 99.800 V 105.800 C 18.700 105.855 18.745 105.900 18.800 105.900 H 21.700 C 21.800 105.900 21.700 105.800 21.700 105.900 V 111.700 C 21.700 111.800 21.800 111.700 21.700 111.700 H 18.800 C 18.745 111.700 18.700 111.745 18.700 111.800 V 117.800 C 18.700 117.855 18.745 117.900 18.800 117.900 H 21.700 C 21.800 117.900 21.700 117.800 21.700 117.900 V 123.700 C 21.700 123.800 21.800 123.700 21.700 123.700 H 18.800 C 18.745 123.700 18.700 123.745 18.700 123.800 V 131.800 C 18.700 131.855 18.745 131.900 18.800 131.900 H 21.800 Z" stroke="rgb(0,0,0)" stroke-width="0.20" />
</g>
<g id="p-3" style="fill:none;stroke-linecap:round;stroke-linejoin:round;">
  <path d="M 21.800 57.200 H 28.700 C 28.800 57.200 28.700 57.100 28.700 57.200 V 60.100 C 28.700 60.155 28.745 60.200 28.800 60.200 H 34.800 C 34.855 60.200 34.900 60.155 34.900 60.100 V 57.200 C 34.900 57.100 34.800 57.200 34.900 57.200 H 40.700 C 40.800 57.200 40.700 57.100 40.700 57.200 V 60.100 C 40.700 60.155 40.745 60.200 40.800 60.200 H 46.800 C 46.855 60.200 46.900 60.155 46.900 60.100 V 57.200 C 46.900 57.100 46.800 57.200 46.900 57.200 H 52.700 C 52.800 57.200 52.700 57.100 52.700 57.200 V 60.100 C 52.700 60.155 52.745 60.200 52.800 60.200 H 58.800 C 58.855 60.200 58.900 60.155 58.900 60.100 V 57.200 C 58.900 57.100 58.800 57.200 58.900 57.200 H 65.800 C 65.855 57.200 65.900 57.155 65.900 57.100 V 50.200 C 65.900 50.100 65.800 50.200 65.900 50.200 H 68.800 C 68.855 50.200 68.900 50.155 68.900 50.100 V 44.100 C 68.900 44.045 68.855 44.000 68.800 44.000 H 65.900 C 65.800 44.000 65.900 44.100 65.900 44.000 V 38.200 C 65.900 38.100 65.800 38.200 65.900 38.200 H 68.800 C 68.855 38.200 68.900 38.155 68.900 38.100 V 32.100 C 68.900 32.045 68.855 32.000 68.800 32.000 H 65.900 C 65.800 32.000 65.900 32.100 65.900 32.000 V 26.200 C 65.900 26.100 65.800 26.200 65.900 26.200 H 68.800 C 68.855 26.200 68.900 26.155 68.900 26.100 V 20.100 C 68.900 20.045 68.855 20.000 68.800 20.000 H 65.900 C 65.800 20.000 65.900 20.100 65.900 20.000 V 13.100 C 65.900 13.045 65.855 13.000 65.800 13.000 H 58.900 C 58.800 13.000 58.900 13.100 58.900 13.000 V 10.100 C 58.900 10.045 58.855 10.000 58.800 10.000 H 52.800 C 52.745 10.000 52.700 10.045 52.700 10.100 V 13.000 C 52.700 13.100 52.800 13.000 52.700 13.000 H 46.900 C 46.800 13.000 46.900 13.100 46.900 13.000 V 10.100 C 46.900 10.045 46.855 10.000 46.800 10.000 H 40.800 C 40.745 10.000 40.700 10.045 40.700 10.100 V 13.000 C 40.700 13.100 40.800 13.000 40.700 13.000 H 34.900 C 34.800 13.000 34.900 13.100 34.900 13.000 V 10.100 C 34.900 10.045 34.855 10.000 34.800 10.000 H 28.800 C 28.745 10.000 28.700 10.045 28.700 10.100 V 13.000 C 28.700 13.100 28.800 13.000 28.700 13.000 H 21.800 C 21.745 13.000 21.700 13.045 21.700 13.100 V 20.000 C 21.700 20.100 21.800 20.000 21.700 20.000 H 18.800 C 18.745 20.000 18.700 20.045 18.700 20.100 V 26.100 C 18.700 26.155 18.745 26.200 18.800 26.200 H 21.700 C 21.800 26.200 21.700 26.100 21.700 26.200 V 32.000 C 21.700 32.100 21.800 32.000 21.700 32.000 H 18.800 C 18.745 32.000 18.700 32.045 18.700 32.100 V 38.100 C 18.700 38.155 18.745 38.200 18.800 38.200 H 21.700 C 21.800 38.200 21.700 38.100 21.700 38.200 V 44.000 C 21.700 44.100 21.800 44.000 21.700 44.000 H 18.800 C 18.745 44.000 18.700 44.045 18.700 44.100 V 50.100 C 18.700 50.155 18.745 50.200 18.800 50.200 H 21.700 C 21.800 50.200 21.700 50.100 21.700 50.200 V 57.100 C 21.700 57.155 21.745 57.200 21.800 57.200 Z" stroke="rgb(0,0,0)" stroke-width="0.20" />
</g>
<g id="p-4" style="fill:none;stroke-linecap:round;stroke-linejoin:round;">
  <path d="M 83.500 200.400 H 80.600 C 80.500 200.400 80.600 200.500 80.600 200.400 V 197.600 C 80.600 197.500 80.500 197.600 80.600 197.600 H 86.400 C 86.500 197.600 86.400 197.500 86.400 197.600 V 200.400 C 86.400 200.500 86.500 200.400 86.400 200.400 H 83.500 Z" stroke="rgb(0,0,255)" stroke-width="0.20" />
  <path d="M 95.500 200.400 H 92.600 C 92.500 200.400 92.600 200.500 92.600 200.400 V 197.600 C 92.600 197.500 92.500 197.600 92.600 197.600 H 98.400 C 98.500 197.600 98.400 197.500 98.400 197.600 V 200.400 C 98.400 200.500 98.500 200.400 98.400 200.400 H 95.500 Z" stroke="rgb(0,0,255)" stroke-width="0.20" />
  <path d="M 107.500 200.400 H 104.600 C 104.500 200.400 104.600 200.500 104.600 200.400 V 197.600 C 104.600 197.500 104.500 197.600 104.600 197.600 H 110.400 C 110.500 197.600 110.400 197.500 110.400 197.600 V 200.400 C 110.400 200.500 110.500 200.400 110.400 200.400 H 107.500 Z" stroke="rgb(0,0,255)" stroke-width="0.20" />
  <path d="M 73.500 203.600 H 117.500 C 117.555 203.600 117.600 203.555 117.600 203.500 V 195.600 C 117.600 195.500 117.500 195.600 117.600 195.600 H 120.500 C 120.555 195.600 120.600 195.555 120.600 195.500 V 189.500 C 120.600 189.445 120.555 189.400 120.500 189.400 H 117.600 C 117.500 189.400 117.600 189.500 117.600 189.400 V 183.600 C 117.600 183.500 117.500 183.600 117.600 183.600 H 120.500 C 120.555 183.600 120.600 183.555 120.600 183.500 V 177.500 C 120.600 177.445 120.555 177.400 120.500 177.400 H 117.600 C 117.500 177.400 117.600 177.500 117.600 177.400 V 171.600 C 117.600 171.500 117.500 171.600 117.600 171.600 H 120.500 C 120.555 171.600 120.600 171.555 120.600 171.500 V 165.500 C 120.600 165.445 120.555 165.400 120.500 165.400 H 117.600 C 117.500 165.400 117.600 165.500 117.600 165.400 V 159.600 C 117.600 159.500 117.500 159.600 117.600 159.600 H 120.500 C 120.555 159.600 120.600 159.555 120.600 159.500 V 153.500 C 120.600 153.445 120.555 153.400 120.500 153.400 H 117.600 C 117.500 153.400 117.600 153.500 117.600 153.400 V 147.600 C 117.600 147.500 117.500 147.600 117.600 147.600 H 120.500 C 120.555 147.600 120.600 147.555 120.600 147.500 V 141.500 C 120.600 141.445 120.555 141.400 120.500 141.400 H 117.600 C 117.500 141.400 117.600 141.500 117.600 141.400 V 133.500 C 117.600 133.445 117.555 133.400 117.500 133.400 H 73.500 C 73.445 133.400 73.400 133.445 73.400 133.500 V 141.400 C 73.400 141.500 73.500 141.400 73.400 141.400 H 70.500 C 70.445 141.400 70.400 141.445 70.400 141.500 V 147.500 C 70.400 147.555 70.445 147.600 70.500 147.600 H 73.400 C 73.500 147.600 73.400 147.500 73.400 147.600 V 153.400 C 73.400 153.500 73.500 153.400 73.400 153.400 H 70.500 C 70.445 153.400 70.400 153.445 70.400 153.500 V 159.500 C 70.400 159.555 70.445 159.600 70.500 159.600 H 73.400 C 73.500 159.600 73.400 159.500 73.400 159.600 V 165.400 C 73.400 165.500 73.500 165.400 73.400 165.400 H 70.500 C 70.445 165.400 70.400 165.445 70.400 165.500 V 171.500 C 70.400 171.555 70.445 171.600 70.500 171.600 H 73.400 C 73.500 171.600 73.400 171.500 73.400 171.600 V 177.400 C 73.400 177.500 73.500 177.400 73.400 177.400 H 70.500 C 70.445 177.400 70.400 177.445 70.400 177.500 V 183.500 C 70.400 183.555 70.445 183.600 70.500 183.600 H 73.400 C 73.500 183.600 73.400 183.500 73.400 183.600 V 189.400 C 73.400 189.500 73.500 189.400 73.400 189.400 H 70.500 C 70.445 189.400 70.400 189.445 70.400 189.500 V 195.500 C 70.400 195.555 70.445 195.600 70.500 195.600 H 73.400 C 73.500 195.600 73.400 195.500 73.400 195.600 V 203.500 C 73.400 203.555 73.445 203.600 73.500 203.600 Z" stroke="rgb(0,0,0)" stroke-width="0.20" />
</g>
<g id="p-5" style="fill:none;stroke-linecap:round;stroke-linejoin:round;">
  <path d="M 83.500 128.700 H 80.600 C 80.500 128.700 80.600 128.800 80.600 128.700 V 125.900 C 80.600 125.800 80.500 125.900 80.600 125.900 H 86.400 C 86.500 125.900 86.400 125.800 86.400 125.900 V 128.700 C 86.400 128.800 86.500 128.700 86.400 128.700 H 83.500 Z" stroke="rgb(0,0,255)" stroke-width="0.20" />
  <path d="M 95.500 128.700 H 92.600 C 92.500 128.700 92.600 128.800 92.600 128.700 V 125.900 C 92.600 125.800 92.500 125.900 92.600 125.900 H 98.400 C 98.500 125.900 98.400 125.800 98.400 125.900 V 128.700 C 98.400 128.800 98.500 128.700 98.400 128.700 H 95.500 Z" stroke="rgb(0,0,255)" stroke-width="0.20" />
  <path d="M 107.500 128.700 H 104.600 C 104.500 128.700 104.600 128.800 104.600 128.700 V 125.900 C 104.600 125.800 104.500 125.900 104.600 125.900 H 110.400 C 110.500 125.900 110.400 125.800 110.400 125.900 V 128.700 C 110.400 128.800 110.500 128.700 110.400 128.700 H 107.500 Z" stroke="rgb(0,0,255)" stroke-width="0.20" />
  <path d="M 73.500 131.900 H 117.500 C 117.555 131.900 117.600 131.855 117.600 131.800 V 123.900 C 117.600 123.800 117.500 123.900 117.600 123.900 H 120.500 C 120.555 123.900 120.600 123.855 120.600 123.800 V 117.800 C 120.600 117.745 120.555 117.700 120.500 117.700 H 117.600 C 117.500 117.700 117.600 117.800 117.600 117.700 V 111.900 C 117.600 111.800 117.500 111.900 117.600 111.900 H 120.500 C 120.555 111.900 120.600 111.855 120.600 111.800 V 105.800 C 120.600 105.745 120.555 105.700 120.500 105.700 H 117.600 C 117.500 105.700 117.600 105.800 117.600 105.700 V 99.900 C 117.600 99.800 117.500 99.900 117.600 99.900 H 120.500 C 120.555 99.900 120.600 99.855 120.600 99.800 V 93.800 C 120.600 93.745 120.555 93.700 120.500 93.700 H 117.600 C 117.500 93.700 117.600 93.800 117.600 93.700 V 87.900 C 117.600 87.800 117.500 87.900 117.600 87.900 H 120.500 C 120.555 87.900 120.600 87.855 120.600 87.800 V 81.800 C 120.600 81.745 120.555 81.700 120.500 81.700 H 117.600 C 117.500 81.700 117.600 81.800 117.600 81.700 V 75.900 C 117.600 75.800 117.500 75.900 117.600 75.900 H 120.500 C 120.555 75.900 120.600 75.855 120.600 75.800 V 69.800 C 120.600 69.745 120.555 69.700 120.500 69.700 H 117.600 C 117.500 69.700 117.600 69.800 117.600 69.700 V 61.800 C 117.600 61.745 117.555 61.700 117.500 61.700 H 73.500 C 73.445 61.700 73.400 61.745 73.400 61.800 V 69.700 C 73.400 69.800 73.500 69.700 73.400 69.700 H 70.500 C 70.445 69.700 70.400 69.745 70.400 69.800 V 75.800 C 70.400 75.855 70.445 75.900 70.500 75.900 H 73.400 C 73.500 75.900 73.400 75.800 73.400 75.900 V 81.700 C 73.400 81.800 73.500 81.700 73.400 81.700 H 70.500 C 70.445 81.700 70.400 81.745 70.400 81.800 V 87.800 C 70.400 87.855 70.445 87.900 70.500 87.900 H 73.400 C 73.500 87.900 73.400 87.800 73.400 87.900 V 93.700 C 73.400 93.800 73.500 93.700 73.400 93.700 H 70.500 C 70.445 93.700 70.400 93.745 70.400 93.800 V 99.800 C 70.400 99.855 70.445 99.900 70.500 99.900 H 73.400 C 73.500 99.900 73.400 99.800 73.400 99.900 V 105.700 C 73.400 105.800 73.500 105.700 73.400 105.700 H 70.500 C 70.445 105.700 70.400 105.745 70.400 105.800 V 111.800 C 70.400 111.855 70.445 111.900 70.500 111.900 H 73.400 C 73.500 111.900 73.400 111.800 73.400 111.900 V 117.700 C 73.400 117.800 73.500 117.700 73.400 117.700 H 70.500 C 70.445 117.700 70.400 117.745 70.400 117.800 V 123.800 C 70.400 123.855 70.445 123.900 70.500 123.900 H 73.400 C 73.500 123.900 73.400 123.800 73.400 123.900 V 131.800 C 73.400 131.855 73.445 131.900 73.500 131.900 Z" stroke="rgb(0,0,0)" stroke-width="0.20" />
</g>
</svg>